<svg id="Layer_1" data-name="Layer 1" xmlns="http://www.w3.org/2000/svg" viewBox="0 0 54.17 66.91"><defs><style>.cls-1{fill:#fff;}</style></defs><title>data</title><path class="cls-1" d="M942,1472.84c-15.44,0-27.09,5.33-27.09,12.4v42.12c0,7.07,11.64,12.4,27.09,12.4s27.09-5.33,27.09-12.4v-42.12C969.12,1478.17,957.48,1472.84,942,1472.84Zm0,35.22c-8.91,0-19.87-2.52-22.84-6.74v-9.23c4.85,3.47,13.35,5.54,22.84,5.54s18-2.07,22.84-5.54v9.23C961.91,1505.54,950.95,1508.06,942,1508.06Zm0,13.88c-8.91,0-19.87-2.52-22.84-6.74v-10.14c4.68,3.61,13.18,5.75,22.84,5.75s18.16-2.15,22.84-5.75v10.14C961.91,1519.42,950.95,1521.94,942,1521.94Zm-22.84-3c4.68,3.61,13.18,5.75,22.84,5.75s18.16-2.15,22.84-5.75v8.41c0,3.85-9.77,8.15-22.84,8.15s-22.84-4.3-22.84-8.15v-8.41ZM942,1493.38c-13.07,0-22.84-4.3-22.84-8.15s9.77-8.15,22.84-8.15,22.84,4.3,22.84,8.15S955.11,1493.38,942,1493.38Z" transform="translate(-914.95 -1472.84)"/></svg>