<svg id="Layer_1" data-name="Layer 1" xmlns="http://www.w3.org/2000/svg" viewBox="0 0 13.93 22.84"><defs><style>.cls-1{fill:#fff;}</style></defs><title>query</title><path class="cls-1" d="M806.43,1582.74a3,3,0,1,1,2.95-3,3,3,0,0,1-2.95,3" transform="translate(-799.57 -1559.9)"/><path class="cls-1" d="M811.37,1570.28l-0.76.7c-1.08,1-2,1.94-2,3.58v0.6H804.2c0-.26,0-0.92,0-1.21,0-4.19,4.28-5.65,4.28-7.9a2,2,0,0,0-2.22-1.87,5.53,5.53,0,0,0-4.09,2l-2.57-3.2a9.26,9.26,0,0,1,7.11-3.08c4.06,0,6.82,2.63,6.82,5.68a6.11,6.11,0,0,1-2.12,4.69" transform="translate(-799.57 -1559.9)"/></svg>